<svg width="1338" height="1338" viewBox="0 0 1338 1338" fill="none" xmlns="http://www.w3.org/2000/svg">
<circle cx="669" cy="669" r="669" fill="url(#paint0_linear_5026_2811)" fill-opacity="0.72"/>
<path d="M270.185 598.573C271.208 601.44 271.923 604.716 272.332 608.403C272.946 611.884 273.253 615.468 273.253 619.154C273.253 622.841 272.946 626.527 272.332 630.213C271.923 633.695 271.31 636.766 270.492 639.429C267.219 650.897 260.675 660.522 250.858 668.305C241.041 675.882 229.792 681.411 217.112 684.893C204.636 688.374 191.649 689.603 178.15 688.579C164.856 687.555 152.994 684.176 142.564 678.442C136.019 674.756 130.395 670.25 125.691 664.926C120.987 659.601 116.998 653.662 113.726 647.109C112.499 644.856 111.681 642.296 111.272 639.429C111.067 636.357 111.374 633.49 112.192 630.827C113.01 627.96 114.34 625.503 116.18 623.455C118.021 621.202 120.577 619.666 123.85 618.847C125.895 618.437 128.145 618.233 130.599 618.233C133.258 618.233 135.814 618.642 138.269 619.461C140.723 620.076 142.973 621.202 145.018 622.841C147.063 624.274 148.699 626.322 149.926 628.984C152.176 633.285 155.346 637.278 159.437 640.965C163.732 644.446 168.231 647.313 172.935 649.566C179.684 651.819 186.433 652.74 193.183 652.331C200.136 651.921 206.374 650.385 211.896 647.723C217.623 645.061 222.225 641.477 225.702 636.971C229.178 632.261 230.917 626.936 230.917 620.997C230.917 616.082 230.201 612.089 228.769 609.017C227.338 605.74 225.292 603.078 222.634 601.03C220.179 598.777 217.112 596.934 213.43 595.501C209.953 594.067 206.067 592.838 201.773 591.814C196.864 590.79 191.853 590.074 186.74 589.664C181.832 589.254 176.821 588.742 171.708 588.128C166.595 587.514 161.584 586.695 156.676 585.671C151.767 584.647 146.961 583.111 142.257 581.063C132.849 577.172 125.691 571.233 120.782 563.246C115.873 555.259 112.908 546.657 111.885 537.442C111.067 528.226 112.192 519.113 115.26 510.102C118.328 500.886 123.236 493.002 129.985 486.448C136.53 480.509 144.302 476.311 153.301 473.853C162.504 471.191 172.628 469.655 183.672 469.246C189.808 469.041 195.944 469.246 202.079 469.86C208.419 470.474 214.453 471.498 220.179 472.932C226.111 474.365 231.53 476.209 236.439 478.461C241.552 480.714 245.949 483.376 249.631 486.448C252.289 488.496 254.948 491.261 257.607 494.742C260.266 498.019 262.311 501.603 263.743 505.494C265.174 509.18 265.583 512.764 264.97 516.246C264.561 519.727 262.413 522.697 258.527 525.154C255.255 527.202 252.085 528.124 249.017 527.919C246.154 527.509 243.393 526.588 240.734 525.154C238.075 523.516 235.519 521.673 233.064 519.625C230.61 517.577 228.36 515.734 226.315 514.095C220.793 509.999 213.942 507.235 205.761 505.801C197.58 504.368 189.91 504.06 182.752 504.88C178.253 505.494 174.06 506.518 170.174 507.952C166.288 509.385 162.913 511.331 160.05 513.788C157.391 516.246 155.244 519.318 153.608 523.004C152.176 526.485 151.665 530.479 152.074 534.984C152.278 538.261 153.199 541.026 154.835 543.278C156.676 545.531 158.823 547.374 161.277 548.808C163.936 550.241 166.799 551.368 169.867 552.187C172.935 553.006 176.003 553.62 179.071 554.03C188.274 555.259 197.478 556.18 206.681 556.795C215.885 557.409 224.883 559.457 233.678 562.939C242.677 566.42 250.346 571.13 256.687 577.069C263.027 583.008 267.526 590.176 270.185 598.573Z" fill="white"/>
<path d="M497.633 485.219C498.655 489.93 498.758 494.742 497.94 499.657C497.326 504.368 496.406 508.668 495.179 512.559C492.724 520.546 489.861 529.455 486.589 539.285C483.316 549.115 480.044 558.945 476.772 568.775C473.499 578.605 470.329 587.923 467.261 596.729C464.194 605.331 461.637 612.498 459.592 618.233C457.547 623.557 455.399 629.599 453.149 636.357C450.9 643.115 448.139 649.771 444.866 656.324C441.798 662.673 438.117 668.509 433.822 673.834C429.732 679.159 424.721 683.05 418.79 685.507C412.859 687.965 407.439 688.579 402.53 687.35C397.622 685.917 393.225 683.459 389.339 679.978C385.453 676.292 381.874 671.786 378.601 666.461C375.533 660.932 372.772 655.3 370.318 649.566C367.864 643.832 365.614 638.302 363.569 632.978C361.524 627.448 359.683 622.738 358.047 618.847C351.707 604.921 345.98 590.176 340.867 574.612C335.754 559.047 330.539 544.2 325.221 530.069C323.79 525.973 322.153 521.058 320.313 515.324C318.472 509.385 317.245 503.548 316.631 497.814C316.222 491.875 316.938 486.551 318.779 481.84C320.619 476.925 324.505 473.546 330.437 471.703C331.664 471.294 332.891 470.986 334.118 470.782C335.55 470.372 336.879 470.065 338.106 469.86C339.538 469.86 340.867 469.962 342.094 470.167C343.321 470.372 344.651 470.884 346.082 471.703C347.105 472.113 348.128 472.625 349.15 473.239C350.173 473.649 351.093 474.263 351.911 475.082C352.729 476.106 353.445 477.13 354.059 478.154C354.877 479.178 355.695 480.202 356.513 481.226C357.127 482.66 357.638 483.991 358.047 485.219C358.66 486.243 359.172 487.267 359.581 488.291C359.99 489.725 360.501 491.056 361.115 492.285C361.728 493.309 362.24 494.333 362.649 495.357L364.489 500.579L408.666 626.834L452.229 500.886L454.377 495.664C454.786 494.64 455.195 493.616 455.604 492.592C456.013 491.363 456.422 490.032 456.831 488.599C457.24 487.575 457.649 486.551 458.058 485.527C458.672 484.298 459.387 483.069 460.205 481.84C460.819 480.816 461.433 479.792 462.046 478.768C462.864 477.54 463.682 476.413 464.5 475.389C465.114 474.57 465.83 473.853 466.648 473.239C467.67 472.625 468.591 472.113 469.409 471.703C471.045 470.884 472.477 470.372 473.704 470.167C475.136 469.962 476.363 469.86 477.385 469.86C478.612 470.065 479.839 470.372 481.067 470.782C482.498 470.986 483.828 471.294 485.055 471.703C488.941 472.727 491.804 474.468 493.645 476.925C495.69 479.383 497.019 482.148 497.633 485.219Z" fill="white"/>
<path d="M583.479 507.337L582.866 555.566H595.137C603.522 555.361 610.987 555.259 617.532 555.259C624.077 555.259 631.337 555.361 639.314 555.566H640.847C643.302 555.566 645.654 555.668 647.903 555.873C650.358 555.873 652.71 555.873 654.959 555.873C657.414 556.078 659.766 556.488 662.015 557.102C664.265 557.511 666.515 558.023 668.765 558.638C672.242 559.867 675.105 561.71 677.355 564.167C679.4 566.83 680.422 569.799 680.422 573.076C680.422 574.1 680.422 575.328 680.422 576.762C680.422 577.991 680.218 579.117 679.809 580.141C679.4 582.394 678.07 584.442 675.821 586.285C674.798 587.718 672.855 588.742 669.992 589.357C667.333 590.176 664.674 590.688 662.015 590.893C659.152 591.507 656.289 591.814 653.426 591.814H639.007L582.252 592.122L581.638 652.331L642.688 652.945H657.107C658.743 652.945 660.277 652.945 661.709 652.945C663.14 652.945 664.47 653.048 665.697 653.252C667.333 653.662 668.765 653.969 669.992 654.174C671.423 654.174 672.753 654.379 673.98 654.788C676.434 655.607 678.479 656.734 680.116 658.167C682.161 660.215 683.49 662.366 684.104 664.618C684.308 665.642 684.411 666.769 684.411 667.997C684.615 669.021 684.615 670.148 684.411 671.377C684.411 674.653 683.388 677.623 681.343 680.285C678.888 683.152 676.025 684.995 672.753 685.814C668.458 687.658 663.754 688.579 658.641 688.579C656.391 688.784 654.039 688.886 651.585 688.886C649.131 688.886 646.779 688.989 644.529 689.194H642.688C626.735 689.603 610.169 689.603 592.989 689.194C588.899 689.194 585.627 689.091 583.172 688.886C580.718 688.886 578.468 688.886 576.423 688.886C574.582 688.886 572.639 688.886 570.594 688.886C568.549 688.886 565.89 688.886 562.618 688.886C557.914 689.296 554.028 688.477 550.96 686.429C548.71 684.995 546.972 683.05 545.745 680.592C545.131 679.978 544.825 679.363 544.825 678.749C544.62 678.339 544.416 678.032 544.211 677.827C544.007 677.623 543.802 677.316 543.597 676.906C543.188 675.882 542.882 674.858 542.677 673.834C542.473 672.605 542.37 671.479 542.37 670.455C542.166 669.431 541.961 668.407 541.757 667.383C541.757 666.359 541.655 665.335 541.45 664.311V659.396C541.45 658.577 541.45 657.758 541.45 656.939C541.655 656.119 541.757 655.3 541.757 654.481V630.52L542.37 586.285V545.429C542.37 538.056 542.37 531.503 542.37 525.769C542.575 520.034 542.779 513.788 542.984 507.03V505.494C543.188 503.241 543.291 501.193 543.291 499.35C543.495 497.302 543.597 495.254 543.597 493.206C543.802 489.111 544.927 485.117 546.972 481.226C547.79 479.588 548.608 478.154 549.426 476.925C550.449 475.697 551.778 474.673 553.414 473.853C556.482 472.01 559.652 471.089 562.925 471.089C564.561 471.089 565.788 471.191 566.606 471.396V471.089C570.287 471.089 573.253 471.089 575.503 471.089C577.753 471.089 579.9 471.089 581.945 471.089C584.195 471.089 586.547 471.089 589.001 471.089C591.456 470.884 594.83 470.782 599.125 470.782C607.306 470.577 615.078 470.474 622.441 470.474C629.803 470.474 637.371 470.577 645.142 470.782H646.37C648.619 470.986 650.971 471.089 653.426 471.089C655.88 471.089 658.232 471.191 660.482 471.396C662.731 471.396 664.981 471.703 667.231 472.318C669.48 472.727 671.73 473.341 673.98 474.161C677.457 475.185 680.32 476.925 682.57 479.383C684.411 482.25 685.331 485.117 685.331 487.984C685.331 489.213 685.331 490.442 685.331 491.67C685.331 492.694 685.126 493.718 684.717 494.742C684.513 496.79 683.286 498.941 681.036 501.193C680.218 501.603 679.298 502.115 678.275 502.729C677.457 503.344 676.434 503.856 675.207 504.265C673.98 504.675 672.651 504.982 671.219 505.187C669.992 505.187 668.765 505.289 667.538 505.494C665.901 505.904 664.367 506.108 662.936 506.108C661.709 506.108 660.277 506.108 658.641 506.108H644.836L583.479 506.416V507.337Z" fill="white"/>
<path d="M869.961 664.618C870.37 665.642 870.575 667.178 870.575 669.226C870.575 671.069 870.575 672.605 870.575 673.834C870.575 675.472 870.268 677.008 869.654 678.442C869.041 679.875 868.223 681.207 867.2 682.435C865.359 684.893 862.701 686.736 859.224 687.965C854.315 689.603 849.713 690.422 845.419 690.422C843.169 690.627 840.817 690.729 838.362 690.729C835.908 690.729 833.454 690.934 831 691.344H829.773C814.024 691.549 797.765 691.549 780.994 691.344C776.904 691.139 772.302 691.139 767.189 691.344C762.076 691.753 757.065 691.651 752.157 691.037C747.248 690.627 742.749 689.501 738.658 687.658C734.772 685.61 732.011 682.435 730.375 678.135C729.966 677.111 729.659 676.189 729.455 675.37C729.25 674.346 729.148 673.322 729.148 672.298C728.33 665.335 728.023 658.475 728.228 651.716C728.432 644.958 728.534 638.302 728.534 631.749L729.148 587.207V546.043C729.148 538.671 729.148 532.117 729.148 526.383C729.353 520.649 729.557 514.3 729.762 507.337V505.801C729.966 503.753 730.068 501.705 730.068 499.657C730.273 497.609 730.375 495.562 730.375 493.514C730.784 488.803 731.909 484.81 733.75 481.533C734.977 478.461 737.124 476.004 740.192 474.161C742.851 472.318 746.021 471.396 749.702 471.396C751.134 471.396 752.463 471.498 753.691 471.703C755.122 471.703 756.452 471.806 757.679 472.01C758.906 472.215 760.031 472.625 761.053 473.239C762.28 473.853 763.508 474.673 764.735 475.697C765.962 477.13 767.087 478.871 768.109 480.919C768.927 483.172 769.439 485.424 769.643 487.677C769.848 489.111 770.052 490.442 770.257 491.67C770.461 492.899 770.564 494.128 770.564 495.357C770.155 496.586 769.95 497.814 769.95 499.043C769.95 500.272 769.95 501.398 769.95 502.422V507.952L768.723 652.638L829.466 653.252H843.885C845.112 653.252 846.441 653.355 847.873 653.559C849.304 653.559 850.736 653.662 852.168 653.867C853.804 654.071 855.236 654.276 856.463 654.481C857.69 654.686 858.917 654.993 860.144 655.403C862.394 656.017 864.234 657.041 865.666 658.475C867.916 660.522 869.347 662.57 869.961 664.618Z" fill="white"/>
<path d="M1036.71 479.997C1038.96 482.66 1040.09 485.424 1040.09 488.291C1040.09 489.52 1039.99 490.851 1039.78 492.285C1039.78 493.514 1039.68 494.64 1039.48 495.664C1038.86 497.917 1037.53 500.067 1035.49 502.115C1033.85 503.344 1031.6 504.265 1028.74 504.88C1027.31 505.289 1025.87 505.596 1024.44 505.801C1023.01 506.006 1021.48 506.313 1019.84 506.723C1018.41 506.928 1016.98 507.03 1015.55 507.03C1014.11 507.03 1012.58 507.03 1010.94 507.03H995.298C991.617 507.235 987.936 507.337 984.254 507.337C980.777 507.337 977.301 507.337 973.824 507.337C974.028 513.686 974.13 520.546 974.13 527.919C974.13 535.087 974.028 543.483 973.824 553.108C973.824 562.734 973.721 573.895 973.517 586.592C973.517 599.289 973.517 614.034 973.517 630.827V654.174C973.517 656.222 973.619 657.758 973.824 658.782C973.824 659.601 973.824 660.42 973.824 661.239C973.824 661.854 973.721 662.673 973.517 663.697C973.108 665.54 972.801 667.69 972.596 670.148C972.596 671.172 972.494 672.196 972.29 673.22C972.085 674.039 971.778 674.96 971.369 675.984C970.551 676.804 970.142 677.418 970.142 677.827L969.222 679.671C968.199 681.719 966.256 683.664 963.393 685.507C958.894 687.76 953.883 688.272 948.361 687.043C944.884 686.634 942.225 685.712 940.384 684.278C938.544 682.435 937.214 680.592 936.396 678.749C935.169 676.496 934.453 674.346 934.249 672.298C933.635 670.455 933.328 668.509 933.328 666.461V508.566C932.101 508.566 929.545 508.566 925.659 508.566C921.773 508.566 917.58 508.566 913.081 508.566C908.786 508.361 904.695 508.156 900.809 507.952C896.924 507.747 894.265 507.542 892.833 507.337C891.606 507.132 889.663 506.825 887.004 506.416C884.55 506.006 882.505 505.596 880.869 505.187C876.574 503.958 873.199 502.013 870.745 499.35C868.495 496.688 867.37 493.718 867.37 490.442C867.37 489.213 867.37 487.984 867.37 486.755C867.37 485.527 867.575 484.4 867.984 483.376C868.597 480.919 870.233 478.871 872.892 477.233C873.71 476.618 874.937 475.901 876.574 475.082C878.414 474.058 880.153 473.341 881.789 472.932C884.243 472.113 887.311 471.498 890.992 471.089C892.629 470.884 894.265 470.782 895.901 470.782C897.537 470.782 899.276 470.782 901.116 470.782C908.275 470.782 915.024 470.782 921.364 470.782C927.909 470.782 934.76 470.679 941.918 470.474C953.781 470.27 965.541 470.27 977.198 470.474C989.06 470.474 1000.82 470.679 1012.48 471.089C1015.14 471.294 1017.69 471.601 1020.15 472.01C1022.6 472.42 1025.06 473.137 1027.51 474.161C1029.35 474.775 1031.09 475.594 1032.73 476.618C1034.36 477.437 1035.69 478.564 1036.71 479.997Z" fill="white"/>
<path d="M1124.94 507.337L1124.32 555.566H1136.6C1144.98 555.361 1152.45 555.259 1158.99 555.259C1165.54 555.259 1172.8 555.361 1180.77 555.566H1182.31C1184.76 555.566 1187.11 555.668 1189.36 555.873C1191.82 555.873 1194.17 555.873 1196.42 555.873C1198.87 556.078 1201.22 556.488 1203.47 557.102C1205.72 557.511 1207.97 558.023 1210.22 558.638C1213.7 559.867 1216.56 561.71 1218.81 564.167C1220.86 566.83 1221.88 569.799 1221.88 573.076C1221.88 574.1 1221.88 575.328 1221.88 576.762C1221.88 577.991 1221.68 579.117 1221.27 580.141C1220.86 582.394 1219.53 584.442 1217.28 586.285C1216.26 587.718 1214.31 588.742 1211.45 589.357C1208.79 590.176 1206.13 590.688 1203.47 590.893C1200.61 591.507 1197.75 591.814 1194.88 591.814H1180.47L1123.71 592.122L1123.1 652.331L1184.15 652.945H1198.57C1200.2 652.945 1201.74 652.945 1203.17 652.945C1204.6 652.945 1205.93 653.048 1207.16 653.252C1208.79 653.662 1210.22 653.969 1211.45 654.174C1212.88 654.174 1214.21 654.379 1215.44 654.788C1217.89 655.607 1219.94 656.734 1221.57 658.167C1223.62 660.215 1224.95 662.366 1225.56 664.618C1225.77 665.642 1225.87 666.769 1225.87 667.997C1226.07 669.021 1226.07 670.148 1225.87 671.377C1225.87 674.653 1224.85 677.623 1222.8 680.285C1220.35 683.152 1217.48 684.995 1214.21 685.814C1209.92 687.658 1205.21 688.579 1200.1 688.579C1197.85 688.784 1195.5 688.886 1193.04 688.886C1190.59 688.886 1188.24 688.989 1185.99 689.194H1184.15C1168.19 689.603 1151.63 689.603 1134.45 689.194C1130.36 689.194 1127.09 689.091 1124.63 688.886C1122.18 688.886 1119.93 688.886 1117.88 688.886C1116.04 688.886 1114.1 688.886 1112.05 688.886C1110.01 688.886 1107.35 688.886 1104.08 688.886C1099.37 689.296 1095.49 688.477 1092.42 686.429C1090.17 684.995 1088.43 683.05 1087.2 680.592C1086.59 679.978 1086.28 679.363 1086.28 678.749C1086.08 678.339 1085.87 678.032 1085.67 677.827C1085.47 677.623 1085.26 677.316 1085.06 676.906C1084.65 675.882 1084.34 674.858 1084.14 673.834C1083.93 672.605 1083.83 671.479 1083.83 670.455C1083.62 669.431 1083.42 668.407 1083.22 667.383C1083.22 666.359 1083.11 665.335 1082.91 664.311V659.396C1082.91 658.577 1082.91 657.758 1082.91 656.939C1083.11 656.119 1083.22 655.3 1083.22 654.481V630.52L1083.83 586.285V545.429C1083.83 538.056 1083.83 531.503 1083.83 525.769C1084.03 520.034 1084.24 513.788 1084.44 507.03V505.494C1084.65 503.241 1084.75 501.193 1084.75 499.35C1084.95 497.302 1085.06 495.254 1085.06 493.206C1085.26 489.111 1086.39 485.117 1088.43 481.226C1089.25 479.588 1090.07 478.154 1090.89 476.925C1091.91 475.697 1093.24 474.673 1094.87 473.853C1097.94 472.01 1101.11 471.089 1104.38 471.089C1106.02 471.089 1107.25 471.191 1108.06 471.396V471.089C1111.75 471.089 1114.71 471.089 1116.96 471.089C1119.21 471.089 1121.36 471.089 1123.4 471.089C1125.65 471.089 1128.01 471.089 1130.46 471.089C1132.91 470.884 1136.29 470.782 1140.58 470.782C1148.76 470.577 1156.54 470.474 1163.9 470.474C1171.26 470.474 1178.83 470.577 1186.6 470.782H1187.83C1190.08 470.986 1192.43 471.089 1194.88 471.089C1197.34 471.089 1199.69 471.191 1201.94 471.396C1204.19 471.396 1206.44 471.703 1208.69 472.318C1210.94 472.727 1213.19 473.341 1215.44 474.161C1218.92 475.185 1221.78 476.925 1224.03 479.383C1225.87 482.25 1226.79 485.117 1226.79 487.984C1226.79 489.213 1226.79 490.442 1226.79 491.67C1226.79 492.694 1226.59 493.718 1226.18 494.742C1225.97 496.79 1224.74 498.941 1222.49 501.193C1221.68 501.603 1220.76 502.115 1219.73 502.729C1218.92 503.344 1217.89 503.856 1216.67 504.265C1215.44 504.675 1214.11 504.982 1212.68 505.187C1211.45 505.187 1210.22 505.289 1209 505.494C1207.36 505.904 1205.83 506.108 1204.39 506.108C1203.17 506.108 1201.74 506.108 1200.1 506.108H1186.29L1124.94 506.416V507.337Z" fill="white"/>
<path d="M226.195 835.229C227.962 839.201 228.03 843.103 226.399 846.938C224.768 850.635 222.186 854.059 218.653 857.209C215.12 860.358 211.043 863.097 206.423 865.425C201.938 867.753 197.658 869.396 193.581 870.355C189.097 871.314 184.34 871.724 179.312 871.588C174.42 871.588 169.46 870.971 164.432 869.739C159.54 868.643 154.716 867 149.96 864.809C145.339 862.481 141.059 859.674 137.118 856.387C132.362 852.416 128.625 847.691 125.907 842.213C123.325 836.599 121.422 830.642 120.199 824.342C118.976 818.043 118.297 811.743 118.161 805.444C118.161 799.008 118.365 792.982 118.773 787.368C119.18 782.301 120.199 777.028 121.83 771.551C123.461 766.073 125.703 760.732 128.557 755.528C131.546 750.188 135.08 745.258 139.156 740.739C143.369 736.219 148.261 732.385 153.833 729.235C158.045 726.77 162.734 725.127 167.897 724.305C173.197 723.347 178.497 723.141 183.797 723.689C189.233 724.1 194.328 725.264 199.085 727.181C203.977 728.961 208.121 731.426 211.519 734.576C213.693 736.493 215.935 739.164 218.245 742.587C220.692 746.011 222.458 749.503 223.545 753.063C224.632 756.624 224.632 759.979 223.545 763.129C222.594 766.142 219.876 768.196 215.392 769.291C213.489 769.839 211.791 769.976 210.296 769.702C208.801 769.291 207.442 768.675 206.219 767.853C204.996 766.895 203.841 765.799 202.754 764.567C201.667 763.334 200.647 762.102 199.696 760.869C196.435 756.898 192.63 754.227 188.281 752.858C183.933 751.352 179.584 751.009 175.236 751.831C171.023 752.516 167.014 754.296 163.209 757.172C159.54 759.911 156.686 763.471 154.648 767.853C152.474 772.509 150.707 777.645 149.348 783.259C148.125 788.737 147.446 794.352 147.31 800.103C147.174 805.718 147.65 811.196 148.737 816.536C149.96 821.877 151.998 826.602 154.852 830.71C157.026 833.997 159.676 836.667 162.802 838.721C166.063 840.775 169.528 842.213 173.197 843.035C176.866 843.857 180.535 843.994 184.205 843.446C188.009 842.898 191.679 841.666 195.212 839.748C196.299 839.201 197.454 838.447 198.677 837.489C200.036 836.393 201.395 835.298 202.754 834.202C204.113 833.107 205.472 832.08 206.831 831.121C208.325 830.162 209.888 829.478 211.519 829.067C213.965 828.245 216.615 828.314 219.468 829.272C222.458 830.231 224.7 832.216 226.195 835.229Z" fill="white"/>
<path d="M422.485 860.701C422.621 862.07 422.485 863.371 422.077 864.603C421.805 865.425 421.398 866.11 420.854 866.658C420.446 867.205 419.903 867.753 419.223 868.301C418 869.123 416.505 869.876 414.739 870.56C413.652 870.834 412.565 871.04 411.477 871.177C410.526 871.451 409.507 871.451 408.42 871.177C406.246 871.04 404.343 870.218 402.712 868.712C400.402 866.795 398.5 864.672 397.005 862.344C396.325 861.248 395.578 860.016 394.763 858.646C393.947 857.277 393.2 855.839 392.52 854.333L369.894 810.99C368.807 810.99 367.72 811.059 366.633 811.196C365.546 811.196 364.459 811.264 363.372 811.401C360.518 811.675 357.8 811.743 355.218 811.607C352.772 811.47 350.19 811.47 347.472 811.607H343.599V848.787C343.599 849.882 343.531 850.909 343.396 851.868C343.396 852.826 343.396 853.853 343.396 854.949C343.396 855.634 343.328 856.524 343.192 857.619C343.192 858.715 343.124 859.742 342.988 860.701C342.716 862.207 342.105 863.782 341.153 865.425C340.202 866.932 338.911 868.232 337.28 869.328C334.427 871.108 330.961 871.588 326.885 870.766C325.118 870.355 323.419 869.67 321.789 868.712C321.245 868.301 320.77 867.822 320.362 867.274C319.954 866.589 319.614 865.904 319.343 865.22C319.071 864.535 318.799 863.85 318.527 863.166C318.391 862.344 318.188 861.591 317.916 860.906C317.508 859.537 317.304 858.236 317.304 857.003V740.328C317.304 739.506 317.304 738.684 317.304 737.863C317.44 736.904 317.576 736.083 317.712 735.398C317.848 733.891 318.323 732.385 319.139 730.879C319.546 729.235 320.226 728.071 321.177 727.387C321.993 726.565 323.216 725.88 324.846 725.333C326.613 724.648 329.127 724.374 332.388 724.511C338.503 724.648 344.551 724.716 350.53 724.716C356.509 724.716 362.488 724.853 368.468 725.127C372.408 725.401 376.553 725.88 380.902 726.565C385.386 727.113 389.531 728.14 393.336 729.646C395.782 730.605 398.024 731.563 400.062 732.522C402.644 734.028 404.683 735.466 406.178 736.836C410.934 741.218 414.535 746.49 416.981 752.653C419.427 758.815 420.65 765.046 420.65 771.345C420.65 778.74 418.884 785.519 415.35 791.681C411.953 797.844 406.449 802.431 398.839 805.444C398.568 805.718 398.16 805.923 397.616 806.06C397.209 806.06 396.869 806.129 396.597 806.266L415.35 844.267L417.185 847.554C417.457 848.102 417.796 848.718 418.204 849.403C418.612 850.088 418.951 850.772 419.223 851.457C419.631 852.142 419.971 852.895 420.242 853.717C420.65 854.538 421.058 855.291 421.465 855.976C421.873 857.893 422.213 859.468 422.485 860.701ZM371.525 787.573C373.971 787.573 376.281 787.162 378.456 786.341C380.766 785.382 382.804 784.15 384.571 782.643C386.473 781.137 388.036 779.425 389.259 777.508C390.482 775.454 391.162 773.263 391.297 770.935C391.841 764.087 390.074 759.02 385.998 755.734C381.921 752.31 376.553 750.462 369.894 750.188C365.954 749.914 361.605 749.777 356.849 749.777C352.229 749.777 347.812 749.777 343.599 749.777C343.735 755.391 343.735 761.143 343.599 767.032C343.599 772.783 343.599 779.63 343.599 787.573H371.525Z" fill="white"/>
<path d="M623.568 735.603C624.383 742.176 624.859 749.845 624.994 758.61C625.13 767.237 624.994 776.001 624.587 784.903C624.315 793.667 623.703 802.021 622.752 809.963C621.801 817.769 620.646 824.068 619.287 828.861C618.336 831.737 617.181 834.75 615.822 837.9C614.599 840.912 613.24 843.651 611.745 846.116C609.571 849.814 606.921 853.1 603.795 855.976C600.67 858.715 597.205 861.111 593.4 863.166C589.73 865.083 585.79 866.589 581.577 867.685C577.5 868.78 573.423 869.396 569.347 869.533C562.144 869.807 555.282 868.78 548.759 866.452C542.372 863.987 536.461 860.153 531.025 854.949C526.948 850.978 523.687 846.732 521.241 842.213C518.795 837.694 516.892 832.97 515.533 828.04C514.175 822.973 513.291 817.769 512.884 812.428C512.612 807.087 512.476 801.61 512.476 795.995C512.476 793.393 512.408 790.175 512.272 786.341C512.272 782.369 512.272 778.329 512.272 774.221C512.272 769.976 512.272 765.868 512.272 761.896C512.272 757.925 512.34 754.57 512.476 751.831C512.476 750.051 512.476 748.133 512.476 746.079C512.476 743.888 512.544 741.766 512.68 739.712C512.951 737.52 513.359 735.466 513.903 733.549C514.446 731.495 515.262 729.646 516.349 728.003C517.572 726.223 519.27 724.922 521.445 724.1C523.619 723.278 525.861 722.868 528.171 722.868C530.617 722.868 532.928 723.347 535.102 724.305C537.276 725.264 539.043 726.633 540.402 728.414C541.081 729.509 541.557 730.605 541.829 731.7C542.1 732.796 542.304 734.028 542.44 735.398C542.712 739.917 542.848 745.052 542.848 750.804C542.984 756.556 542.984 762.17 542.848 767.648C542.848 772.989 542.78 777.919 542.644 782.438C542.508 786.957 542.44 790.312 542.44 792.503C542.44 800.72 542.848 808.183 543.663 814.893C544.478 821.466 546.381 826.944 549.371 831.326C552.088 835.298 555.282 837.831 558.951 838.927C562.62 840.022 566.289 840.365 569.958 839.954C573.355 839.543 576.753 838.31 580.15 836.256C583.683 834.065 586.469 830.916 588.507 826.807C589.323 825.301 590.002 823.589 590.546 821.672C591.089 819.755 591.497 817.974 591.769 816.331C592.312 811.127 592.788 805.102 593.196 798.255C593.603 791.271 593.943 784.149 594.215 776.892C594.487 769.634 594.623 762.513 594.623 755.528C594.623 748.544 594.555 742.245 594.419 736.63C594.69 734.165 595.438 731.906 596.661 729.852C597.748 728.071 599.311 726.497 601.349 725.127C603.388 723.758 606.173 723.073 609.707 723.073C612.56 723.21 614.87 723.963 616.637 725.333C618.404 726.565 619.83 727.934 620.918 729.441C622.141 731.221 623.024 733.275 623.568 735.603Z" fill="white"/>
<path d="M838.941 854.949C838.805 856.592 838.602 858.304 838.33 860.084C838.058 861.865 837.582 863.508 836.903 865.014C836.224 866.658 835.34 867.89 834.253 868.712C832.758 870.081 830.992 870.834 828.953 870.971C827.051 871.656 825.216 871.861 823.45 871.588C821.683 871.314 820.052 870.834 818.558 870.15C816.655 868.917 815.228 867.479 814.277 865.836C813.462 864.056 812.85 862.207 812.442 860.29C812.035 858.373 811.831 856.387 811.831 854.333C811.831 852.279 811.831 850.361 811.831 848.581V832.559L811.627 801.13C811.627 798.939 811.627 797.228 811.627 795.995C811.627 794.763 811.627 793.667 811.627 792.708C811.627 791.613 811.559 790.449 811.423 789.216C811.423 787.847 811.423 785.93 811.423 783.465C811.423 783.054 811.423 782.369 811.423 781.411C811.559 780.315 811.491 777.508 811.219 772.989C805.92 781.89 801.503 789.079 797.97 794.557C794.573 799.898 791.651 804.075 789.205 807.087C786.895 809.963 784.856 811.949 783.09 813.044C781.323 814.003 779.489 814.551 777.586 814.688C776.499 814.825 775.412 814.619 774.325 814.072C773.238 813.524 772.15 812.839 771.063 812.017C770.112 811.196 769.161 810.374 768.21 809.552C767.394 808.594 766.715 807.704 766.171 806.882C762.91 802.774 759.241 797.844 755.164 792.092C751.087 786.341 746.875 779.356 742.526 771.14C742.526 771.277 742.458 773.536 742.322 777.919C742.322 782.301 742.322 787.778 742.322 794.352C742.322 800.788 742.254 807.772 742.118 815.304C742.118 822.699 742.05 829.615 741.914 836.051C741.914 842.487 741.847 847.896 741.711 852.279C741.575 856.524 741.439 858.646 741.303 858.646C741.303 860.974 740.759 863.166 739.672 865.22C738.585 867.137 737.09 868.712 735.188 869.944C733.421 871.177 731.315 871.861 728.869 871.998C726.423 872.135 723.773 871.451 720.919 869.944C719.153 868.849 717.794 867.274 716.842 865.22C716.027 863.166 715.484 861.248 715.212 859.468C715.076 857.551 714.94 855.702 714.804 853.922C714.804 852.142 714.804 850.293 714.804 848.376L715.008 832.353L715.212 800.72V773.194C715.212 761.28 715.619 749.571 716.435 738.068C716.435 736.562 716.571 735.192 716.842 733.96C717.25 732.591 717.726 731.29 718.269 730.057C719.356 727.866 720.783 726.223 722.55 725.127C724.588 723.895 726.763 723.278 729.073 723.278C730.024 723.278 730.907 723.347 731.723 723.484C732.674 723.484 733.557 723.552 734.373 723.689C737.09 724.237 739.401 725.88 741.303 728.619C743.341 731.221 745.244 733.481 747.01 735.398C748.098 736.63 749.253 738.137 750.476 739.917C751.699 741.697 752.922 743.546 754.145 745.463C755.368 747.38 756.523 749.229 757.61 751.009C758.697 752.79 759.648 754.364 760.464 755.734C763.997 761.485 767.122 766.758 769.84 771.551C772.694 776.344 775.344 780.452 777.79 783.876C778.198 783.465 778.673 782.917 779.217 782.232C779.76 781.411 780.304 780.589 780.848 779.767C781.527 778.809 782.071 777.919 782.478 777.097C783.022 776.275 783.43 775.591 783.701 775.043C785.06 772.852 786.419 770.729 787.778 768.675C789.137 766.484 790.564 764.224 792.059 761.896C793.689 759.431 795.32 756.761 796.951 753.885C798.717 751.009 800.756 747.723 803.066 744.025C804.017 742.382 805.24 740.396 806.735 738.068C808.23 735.74 809.928 733.481 811.831 731.29C813.733 729.098 815.704 727.25 817.742 725.743C819.917 724.1 822.091 723.278 824.265 723.278C825.352 723.278 826.303 723.347 827.119 723.484C827.934 723.484 828.749 723.552 829.565 723.689C831.196 723.826 832.758 724.579 834.253 725.949C835.34 727.044 836.156 728.208 836.699 729.441C837.243 731.221 837.582 732.727 837.718 733.96C837.854 734.919 837.922 735.809 837.922 736.63C838.058 737.452 838.126 738.274 838.126 739.095C838.126 746.764 838.194 754.364 838.33 761.896C838.466 769.428 838.534 777.028 838.534 784.697C838.534 794.009 838.534 803.595 838.534 813.455C838.67 823.315 838.738 832.901 838.738 842.213C838.738 844.13 838.805 846.185 838.941 848.376C839.077 850.567 839.077 852.758 838.941 854.949Z" fill="white"/>
<path d="M1009.19 793.941C1013.13 796.543 1016.46 799.624 1019.18 803.185C1022.04 806.608 1024.28 810.853 1025.91 815.92C1027.68 821.535 1028.56 827.218 1028.56 832.97C1028.69 838.584 1027.68 843.857 1025.5 848.787C1023.46 853.58 1020.13 857.825 1015.51 861.522C1011.03 865.083 1005.12 867.616 997.779 869.123C993.838 870.081 989.218 870.834 983.918 871.382C978.618 871.93 973.862 872.204 969.649 872.204C964.349 872.341 958.846 872.341 953.138 872.204C947.567 872.204 942.131 871.656 936.831 870.56C934.521 869.876 932.822 868.712 931.735 867.068C930.784 865.288 930.105 863.303 929.697 861.111C929.153 859.879 928.882 858.646 928.882 857.414V740.739C928.882 736.904 929.629 733.96 931.124 731.906C932.755 729.715 934.861 728.14 937.443 727.181C940.025 726.086 942.946 725.469 946.208 725.333C949.469 725.059 952.867 724.922 956.4 724.922C959.118 724.922 961.835 724.922 964.553 724.922C967.407 724.785 970.261 724.785 973.114 724.922C977.599 725.059 982.219 725.469 986.975 726.154C991.868 726.702 996.488 727.797 1000.84 729.441C1002.87 730.126 1005.05 731.084 1007.36 732.317C1009.67 733.412 1011.5 734.782 1012.86 736.425C1017.21 740.396 1020.4 745.052 1022.44 750.393C1024.62 755.597 1025.57 760.938 1025.3 766.415C1025.03 771.756 1023.53 776.892 1020.81 781.821C1018.23 786.751 1014.36 790.791 1009.19 793.941ZM973.522 848.376C977.735 848.102 982.015 847.623 986.364 846.938C990.712 846.253 993.702 844.952 995.333 843.035C997.099 840.844 998.322 838.31 999.002 835.435C999.817 832.422 1000.02 829.409 999.613 826.396C999.342 823.247 998.458 820.302 996.964 817.564C995.605 814.688 993.77 812.428 991.46 810.785C988.334 808.32 984.733 806.745 980.656 806.06C976.58 805.239 972.571 804.828 968.63 804.828C966.728 804.828 964.961 804.896 963.33 805.033C961.835 805.033 960.477 805.239 959.253 805.65C958.166 805.923 957.351 806.54 956.807 807.498C956.264 808.457 955.992 809.895 955.992 811.812C956.264 815.372 956.264 818.933 955.992 822.494C955.72 826.054 955.584 829.478 955.584 832.764C955.584 834.681 955.516 836.804 955.381 839.132C955.381 841.323 956.128 843.172 957.623 844.678C959.118 846.185 961.292 847.212 964.146 847.759C966.999 848.307 970.125 848.513 973.522 848.376ZM977.599 749.777C973.386 749.64 969.853 749.571 966.999 749.571C964.281 749.434 962.107 749.64 960.477 750.188C958.982 750.598 957.895 751.626 957.215 753.269C956.672 754.775 956.468 757.103 956.604 760.253C956.604 762.855 956.536 765.457 956.4 768.059C956.4 770.524 956.4 772.989 956.4 775.454C956.4 778.192 957.283 780.247 959.05 781.616C960.816 782.849 962.991 783.602 965.572 783.876C968.29 784.149 971.076 784.149 973.93 783.876C976.919 783.602 979.501 783.259 981.676 782.849C986.568 782.027 990.305 780.384 992.887 777.919C995.605 775.317 997.167 771.551 997.575 766.621C998.119 760.458 996.488 756.213 992.683 753.885C989.014 751.42 983.986 750.051 977.599 749.777Z" fill="white"/>
<path d="M1221.28 809.963C1221.96 811.88 1222.43 814.072 1222.7 816.536C1223.11 818.865 1223.31 821.261 1223.31 823.726C1223.31 826.191 1223.11 828.656 1222.7 831.121C1222.43 833.449 1222.02 835.503 1221.48 837.283C1219.31 844.952 1214.96 851.388 1208.43 856.592C1201.91 861.659 1194.44 865.357 1186.01 867.685C1177.72 870.013 1169.09 870.834 1160.12 870.15C1151.29 869.465 1143.41 867.205 1136.48 863.371C1132.13 860.906 1128.39 857.893 1125.27 854.333C1122.14 850.772 1119.49 846.801 1117.32 842.419C1116.5 840.912 1115.96 839.201 1115.69 837.283C1115.55 835.229 1115.76 833.312 1116.3 831.532C1116.84 829.615 1117.73 827.971 1118.95 826.602C1120.17 825.095 1121.87 824.068 1124.05 823.521C1125.4 823.247 1126.9 823.11 1128.53 823.11C1130.3 823.11 1131.99 823.384 1133.63 823.931C1135.26 824.342 1136.75 825.095 1138.11 826.191C1139.47 827.15 1140.56 828.519 1141.37 830.299C1142.87 833.175 1144.97 835.845 1147.69 838.31C1150.54 840.638 1153.53 842.556 1156.66 844.062C1161.14 845.568 1165.63 846.185 1170.11 845.911C1174.73 845.637 1178.88 844.61 1182.55 842.83C1186.35 841.049 1189.41 838.653 1191.72 835.64C1194.03 832.49 1195.18 828.93 1195.18 824.958C1195.18 821.672 1194.71 819.001 1193.76 816.947C1192.81 814.756 1191.45 812.976 1189.68 811.607C1188.05 810.1 1186.01 808.868 1183.57 807.909C1181.26 806.95 1178.67 806.129 1175.82 805.444C1172.56 804.759 1169.23 804.28 1165.83 804.006C1162.57 803.732 1159.24 803.39 1155.84 802.979C1152.45 802.568 1149.12 802.021 1145.86 801.336C1142.59 800.651 1139.4 799.624 1136.28 798.255C1130.02 795.653 1125.27 791.681 1122.01 786.341C1118.75 781 1116.78 775.248 1116.1 769.086C1115.55 762.923 1116.3 756.829 1118.34 750.804C1120.38 744.641 1123.64 739.369 1128.12 734.987C1132.47 731.016 1137.63 728.208 1143.61 726.565C1149.73 724.785 1156.46 723.758 1163.79 723.484C1167.87 723.347 1171.95 723.484 1176.02 723.895C1180.24 724.305 1184.25 724.99 1188.05 725.949C1191.99 726.907 1195.59 728.14 1198.85 729.646C1202.25 731.153 1205.17 732.933 1207.62 734.987C1209.39 736.356 1211.15 738.205 1212.92 740.533C1214.69 742.724 1216.04 745.121 1217 747.723C1217.95 750.188 1218.22 752.584 1217.81 754.912C1217.54 757.24 1216.11 759.226 1213.53 760.869C1211.36 762.239 1209.25 762.855 1207.21 762.718C1205.31 762.444 1203.47 761.828 1201.71 760.869C1199.94 759.774 1198.24 758.541 1196.61 757.172C1194.98 755.802 1193.49 754.57 1192.13 753.474C1188.46 750.735 1183.91 748.887 1178.47 747.928C1173.03 746.97 1167.94 746.764 1163.18 747.312C1160.19 747.723 1157.41 748.407 1154.82 749.366C1152.24 750.325 1150 751.626 1148.1 753.269C1146.33 754.912 1144.9 756.966 1143.82 759.431C1142.87 761.759 1142.53 764.43 1142.8 767.442C1142.93 769.634 1143.55 771.482 1144.63 772.989C1145.86 774.495 1147.28 775.727 1148.91 776.686C1150.68 777.645 1152.58 778.398 1154.62 778.946C1156.66 779.493 1158.7 779.904 1160.74 780.178C1166.85 781 1172.97 781.616 1179.08 782.027C1185.2 782.438 1191.18 783.807 1197.02 786.135C1203 788.463 1208.09 791.613 1212.31 795.584C1216.52 799.556 1219.51 804.349 1221.28 809.963Z" fill="white"/>
<path d="M264.125 781.234C264.125 780.671 264.249 780.182 264.499 779.767C264.748 779.352 265.067 779.041 265.455 778.834C265.843 778.597 266.259 778.478 266.702 778.478C267.173 778.449 267.603 778.538 267.991 778.745C268.905 779.278 269.737 779.93 270.485 780.7C271.261 781.441 272.009 782.197 272.73 782.967C273.894 784.093 274.947 785.234 275.889 786.389C276.831 787.515 277.691 788.596 278.467 789.633C280.49 792.507 281.501 794.7 281.501 796.211C281.501 798.196 278.896 802.255 273.686 808.388C273.381 808.773 273.049 809.188 272.688 809.632C272.328 810.077 271.954 810.521 271.566 810.966C271.178 811.381 270.776 811.751 270.36 812.077C269.945 812.432 269.515 812.714 269.072 812.921C268.212 813.277 267.464 813.321 266.827 813.055C266.217 812.788 265.774 812.358 265.497 811.766C265.219 811.173 265.15 810.492 265.289 809.721C265.427 808.921 265.829 808.166 266.494 807.455C266.993 806.892 267.506 806.329 268.032 805.766C268.587 805.203 269.127 804.625 269.654 804.033C270.54 803.114 271.372 802.181 272.148 801.233C272.924 800.285 273.658 799.292 274.351 798.255C274.711 797.692 274.905 797.144 274.933 796.611C274.961 796.078 274.878 795.574 274.684 795.1C274.49 794.626 274.226 794.167 273.894 793.722C273.561 793.278 273.229 792.848 272.896 792.433C271.926 791.159 270.915 789.944 269.861 788.789C268.836 787.633 267.741 786.537 266.577 785.5C266.106 784.997 265.732 784.611 265.455 784.345C265.178 784.048 264.984 783.811 264.873 783.634C264.596 783.308 264.402 782.937 264.291 782.523C264.18 782.108 264.125 781.678 264.125 781.234Z" fill="white"/>
<path d="M458.743 781.234C458.743 780.671 458.868 780.182 459.117 779.767C459.366 779.352 459.685 779.041 460.073 778.834C460.461 778.597 460.877 778.478 461.32 778.478C461.791 778.449 462.221 778.538 462.609 778.745C463.524 779.278 464.355 779.93 465.103 780.7C465.879 781.441 466.627 782.197 467.348 782.967C468.512 784.093 469.565 785.234 470.507 786.389C471.45 787.515 472.309 788.596 473.085 789.633C475.108 792.507 476.119 794.7 476.119 796.211C476.119 798.196 473.514 802.255 468.304 808.388C467.999 808.773 467.667 809.188 467.306 809.632C466.946 810.077 466.572 810.521 466.184 810.966C465.796 811.381 465.394 811.751 464.978 812.077C464.563 812.432 464.133 812.714 463.69 812.921C462.831 813.277 462.082 813.321 461.445 813.055C460.835 812.788 460.392 812.358 460.115 811.766C459.838 811.173 459.768 810.492 459.907 809.721C460.045 808.921 460.447 808.166 461.112 807.455C461.611 806.892 462.124 806.329 462.651 805.766C463.205 805.203 463.745 804.625 464.272 804.033C465.159 803.114 465.99 802.181 466.766 801.233C467.542 800.285 468.276 799.292 468.969 798.255C469.33 797.692 469.524 797.144 469.551 796.611C469.579 796.078 469.496 795.574 469.302 795.1C469.108 794.626 468.845 794.167 468.512 793.722C468.179 793.278 467.847 792.848 467.514 792.433C466.544 791.159 465.533 789.944 464.48 788.789C463.454 787.633 462.36 786.537 461.196 785.5C460.724 784.997 460.35 784.611 460.073 784.345C459.796 784.048 459.602 783.811 459.491 783.634C459.214 783.308 459.02 782.937 458.909 782.523C458.798 782.108 458.743 781.678 458.743 781.234Z" fill="white"/>
<path d="M660.312 781.234C660.312 780.671 660.436 780.182 660.686 779.767C660.935 779.352 661.254 779.041 661.642 778.834C662.03 778.597 662.446 778.478 662.889 778.478C663.36 778.449 663.79 778.538 664.178 778.745C665.092 779.278 665.924 779.93 666.672 780.7C667.448 781.441 668.196 782.197 668.917 782.967C670.081 784.093 671.134 785.234 672.076 786.389C673.019 787.515 673.878 788.596 674.654 789.633C676.677 792.507 677.688 794.7 677.688 796.211C677.688 798.196 675.083 802.255 669.873 808.388C669.568 808.773 669.236 809.188 668.875 809.632C668.515 810.077 668.141 810.521 667.753 810.966C667.365 811.381 666.963 811.751 666.547 812.077C666.132 812.432 665.702 812.714 665.259 812.921C664.399 813.277 663.651 813.321 663.014 813.055C662.404 812.788 661.961 812.358 661.683 811.766C661.406 811.173 661.337 810.492 661.476 809.721C661.614 808.921 662.016 808.166 662.681 807.455C663.18 806.892 663.693 806.329 664.219 805.766C664.774 805.203 665.314 804.625 665.841 804.033C666.727 803.114 667.559 802.181 668.335 801.233C669.111 800.285 669.845 799.292 670.538 798.255C670.898 797.692 671.092 797.144 671.12 796.611C671.148 796.078 671.065 795.574 670.871 795.1C670.677 794.626 670.413 794.167 670.081 793.722C669.748 793.278 669.416 792.848 669.083 792.433C668.113 791.159 667.102 789.944 666.048 788.789C665.023 787.633 663.928 786.537 662.764 785.5C662.293 784.997 661.919 784.611 661.642 784.345C661.365 784.048 661.171 783.811 661.06 783.634C660.783 783.308 660.589 782.937 660.478 782.523C660.367 782.108 660.312 781.678 660.312 781.234Z" fill="white"/>
<path d="M875.782 781.234C875.782 780.671 875.907 780.182 876.156 779.767C876.405 779.352 876.724 779.041 877.112 778.834C877.5 778.597 877.916 778.478 878.359 778.478C878.83 778.449 879.26 778.538 879.648 778.745C880.562 779.278 881.394 779.93 882.142 780.7C882.918 781.441 883.666 782.197 884.387 782.967C885.551 784.093 886.604 785.234 887.546 786.389C888.489 787.515 889.348 788.596 890.124 789.633C892.147 792.507 893.158 794.7 893.158 796.211C893.158 798.196 890.553 802.255 885.343 808.388C885.038 808.773 884.706 809.188 884.345 809.632C883.985 810.077 883.611 810.521 883.223 810.966C882.835 811.381 882.433 811.751 882.017 812.077C881.602 812.432 881.172 812.714 880.729 812.921C879.87 813.277 879.121 813.321 878.484 813.055C877.874 812.788 877.431 812.358 877.154 811.766C876.876 811.173 876.807 810.492 876.946 809.721C877.084 808.921 877.486 808.166 878.151 807.455C878.65 806.892 879.163 806.329 879.689 805.766C880.244 805.203 880.784 804.625 881.311 804.033C882.198 803.114 883.029 802.181 883.805 801.233C884.581 800.285 885.315 799.292 886.008 798.255C886.369 797.692 886.562 797.144 886.59 796.611C886.618 796.078 886.535 795.574 886.341 795.1C886.147 794.626 885.884 794.167 885.551 793.722C885.218 793.278 884.886 792.848 884.553 792.433C883.583 791.159 882.572 789.944 881.519 788.789C880.493 787.633 879.398 786.537 878.234 785.5C877.763 784.997 877.389 784.611 877.112 784.345C876.835 784.048 876.641 783.811 876.53 783.634C876.253 783.308 876.059 782.937 875.948 782.523C875.837 782.108 875.782 781.678 875.782 781.234Z" fill="white"/>
<path d="M1066.92 781.234C1066.92 780.671 1067.05 780.182 1067.3 779.767C1067.55 779.352 1067.87 779.041 1068.25 778.834C1068.64 778.597 1069.06 778.478 1069.5 778.478C1069.97 778.449 1070.4 778.538 1070.79 778.745C1071.71 779.278 1072.54 779.93 1073.28 780.7C1074.06 781.441 1074.81 782.197 1075.53 782.967C1076.69 784.093 1077.75 785.234 1078.69 786.389C1079.63 787.515 1080.49 788.596 1081.27 789.633C1083.29 792.507 1084.3 794.7 1084.3 796.211C1084.3 798.196 1081.7 802.255 1076.49 808.388C1076.18 808.773 1075.85 809.188 1075.49 809.632C1075.13 810.077 1074.75 810.521 1074.37 810.966C1073.98 811.381 1073.58 811.751 1073.16 812.077C1072.74 812.432 1072.31 812.714 1071.87 812.921C1071.01 813.277 1070.26 813.321 1069.63 813.055C1069.02 812.788 1068.57 812.358 1068.3 811.766C1068.02 811.173 1067.95 810.492 1068.09 809.721C1068.23 808.921 1068.63 808.166 1069.29 807.455C1069.79 806.892 1070.31 806.329 1070.83 805.766C1071.39 805.203 1071.93 804.625 1072.45 804.033C1073.34 803.114 1074.17 802.181 1074.95 801.233C1075.72 800.285 1076.46 799.292 1077.15 798.255C1077.51 797.692 1077.71 797.144 1077.73 796.611C1077.76 796.078 1077.68 795.574 1077.48 795.1C1077.29 794.626 1077.03 794.167 1076.69 793.722C1076.36 793.278 1076.03 792.848 1075.7 792.433C1074.73 791.159 1073.71 789.944 1072.66 788.789C1071.64 787.633 1070.54 786.537 1069.38 785.5C1068.91 784.997 1068.53 784.611 1068.25 784.345C1067.98 784.048 1067.78 783.811 1067.67 783.634C1067.4 783.308 1067.2 782.937 1067.09 782.523C1066.98 782.108 1066.92 781.678 1066.92 781.234Z" fill="white"/>
<defs>
<linearGradient id="paint0_linear_5026_2811" x1="669" y1="0" x2="669" y2="1338" gradientUnits="userSpaceOnUse">
<stop stop-color="#006495"/>
<stop offset="1" stop-color="#009856"/>
</linearGradient>
</defs>
</svg>
